# xmcd CD database file
#
# Track frame offsets:
#	150
#	26744
#	54882
#	59150
#	90418
#	126850
#	132674
#	171598
#	216528
#	222228
#	244201
#
# Disc length: 3674 seconds
#
# Revision: 0
# Processed by: cddbd v1.5.1PL0 Copyright (c) Steve Scherf et al.
# Submitted via: CDex 1.51
#
DISCID=b10e580b
DTITLE=Paul McCandless/Art Lande/Peter Barshay/Alan Hall - Shapeshifter
DYEAR=2004
DGENRE=Jazz
TTITLE0=Majestorum Enborum
TTITLE1=Shapeshifter
TTITLE2=Rattling the Cage
TTITLE3=Rigamarole
TTITLE4=Angels in the Sky
TTITLE5=Argument
TTITLE6=Pompanuk Pond
TTITLE7=Sultana
TTITLE8=On a Misted Moor
TTITLE9=Pietroglyph
TTITLE10=Musiverse
EXTD=YEAR: 2004
EXTT0=
EXTT1=
EXTT2=
EXTT3=
EXTT4=
EXTT5=
EXTT6=
EXTT7=
EXTT8=
EXTT9=
EXTT10=
PLAYORDER=
